HIERARCHY
ROOT Hips
{
 OFFSET 0.000000 0.000000 0.000000
 CHANNELS 6 Xposition Yposition Zposition Yrotation Xrotation Zrotation
 JOINT Chest
 {
  OFFSET 0.000000 9.585900 0.002600
  CHANNELS 3 Yrotation Xrotation Zrotation
  JOINT Chest2
  {
   OFFSET 0.000000 9.601200 -0.005300
   CHANNELS 3 Yrotation Xrotation Zrotation
   JOINT Chest3
   {
    OFFSET 0.000000 9.561800 0.000000
    CHANNELS 3 Yrotation Xrotation Zrotation
    JOINT Chest4
    {
     OFFSET 0.000000 9.552100 0.000000
     CHANNELS 3 Yrotation Xrotation Zrotation
     JOINT Neck
     {
      OFFSET 0.000000 14.453000 0.000000
      CHANNELS 3 Yrotation Xrotation Zrotation
      JOINT Head
      {
       OFFSET 0.000000 8.936500 -0.011300
       CHANNELS 3 Yrotation Xrotation Zrotation
       End Site
       {
        OFFSET 0.000000 17.073600 -0.006000
       }
      }
     }
     JOINT RightCollar
     {
      OFFSET -2.921100 9.558500 0.000000
      CHANNELS 3 Yrotation Xrotation Zrotation
      JOINT RightShoulder
      {
       OFFSET -13.519700 0.000000 0.000000
       CHANNELS 3 Yrotation Xrotation Zrotation
       JOINT RightElbow
       {
        OFFSET 0.000000 -29.696600 0.000000
        CHANNELS 3 Yrotation Xrotation Zrotation
        JOINT RightWrist
        {
         OFFSET 0.000000 -24.004700 0.000000
         CHANNELS 3 Yrotation Xrotation Zrotation
         End Site
         {
          OFFSET 0.000000 -17.728500 0.000000
         }
        }
       }
      }
     }
     JOINT LeftCollar
     {
      OFFSET 2.921100 9.558500 0.000000
      CHANNELS 3 Yrotation Xrotation Zrotation
      JOINT LeftShoulder
      {
       OFFSET 13.519700 0.000000 0.000000
       CHANNELS 3 Yrotation Xrotation Zrotation
       JOINT LeftElbow
       {
        OFFSET 0.000000 -29.696600 0.000000
        CHANNELS 3 Yrotation Xrotation Zrotation
        JOINT LeftWrist
        {
         OFFSET 0.000000 -24.004700 0.000000
         CHANNELS 3 Yrotation Xrotation Zrotation
         End Site
         {
          OFFSET 0.000000 -17.728500 0.000000
         }
        }
       }
      }
     }
    }
   }
  }
 }
 JOINT RightHip
 {
  OFFSET -7.771700 -0.012900 -0.001300
  CHANNELS 3 Yrotation Xrotation Zrotation
  JOINT RightKnee
  {
   OFFSET 0.000000 -40.869800 0.001200
   CHANNELS 3 Yrotation Xrotation Zrotation
   JOINT RightAnkle
   {
    OFFSET 0.000000 -39.717900 0.002100
    CHANNELS 3 Yrotation Xrotation Zrotation
    JOINT RightToe
    {
     OFFSET 0.000000 -4.965400 11.033500
     CHANNELS 3 Yrotation Xrotation Zrotation
     End Site
     {
      OFFSET 0.000000 -1.423100 5.872300
     }
    }
   }
  }
 }
 JOINT LeftHip
 {
  OFFSET 7.771700 -0.012900 -0.001300
  CHANNELS 3 Yrotation Xrotation Zrotation
  JOINT LeftKnee
  {
   OFFSET 0.000000 -40.869800 0.001200
   CHANNELS 3 Yrotation Xrotation Zrotation
   JOINT LeftAnkle
   {
    OFFSET 0.000000 -39.717900 0.002100
    CHANNELS 3 Yrotation Xrotation Zrotation
    JOINT LeftToe
    {
     OFFSET 0.000000 -4.965400 11.033500
     CHANNELS 3 Yrotation Xrotation Zrotation
     End Site
     {
      OFFSET 0.000000 -1.423100 5.872300
     }
    }
   }
  }
 }
}
MOTION
Frames: 17
Frame Time: 0.008333
0.000000 85.388000 0.000000 0.000000 -5.767877 0.000000 0.000000 11.653817 0.000000 0.000000 -5.885947 0.000000 0.000000 -0.000000 0.000000 0.000000 -0.000000 0.000000 0.000000 12.528835 0.000000 0.000000 0.711642 0.000000 0.000000 -0.000000 0.000000 0.000000 0.000000 -90.000000 0.000000 -2.309062 0.000000 0.000000 2.309062 0.000000 0.000000 -0.000000 0.000000 0.000000 -0.000000 90.000000 0.000000 -2.309062 0.000000 0.000000 2.309062 0.000000 0.000000 8.520406 0.000000 0.000000 1.905762 0.000000 -0.000000 -4.658285 0.000000 0.000000 -0.000000 0.000000 0.000000 8.520406 0.000000 0.000000 1.905762 0.000000 -0.000000 -4.658285 0.000000 0.000000 -0.000000 0.000000
-19.672687 62.113782 12.200982 174.493153 -52.688300 -1.243443 5.396806 26.186436 1.321556 0.775418 4.478889 0.156332 1.272757 7.011841 0.251023 4.139014 21.387258 1.305253 5.044022 16.790195 5.509720 7.441650 -4.733629 8.426852 6.141657 4.905420 5.847713 -1.760818 -5.803563 -15.576062 -78.576736 -45.657326 126.773435 -6.949440 11.749322 -25.503463 -7.778327 2.865930 2.060976 -6.068832 -6.428805 17.017157 137.919237 -74.415719 -161.533330 11.376397 4.139170 -6.595356 2.675619 -14.313010 -3.906068 -2.228720 60.736786 -5.420299 1.918738 -7.132220 10.662776 0.155363 -0.478444 0.054318 -2.669668 -11.436791 4.326504 26.213020 76.905587 26.825205 1.082159 -11.812849 -3.443705 0.148789 0.488286 0.090646
-19.671607 62.109117 12.197355 174.485309 -52.621102 -1.249814 5.377610 26.182811 1.333190 0.778348 4.474566 0.156107 1.278270 6.981734 0.243218 4.113996 21.426217 1.335463 4.923788 16.677843 5.391889 7.247299 -4.915184 8.276960 6.149676 4.829686 5.816340 -1.763371 -5.763515 -15.518038 -78.618079 -45.680064 126.802413 -6.921834 11.785992 -25.499894 -7.756826 2.791875 2.017247 -6.043691 -6.328320 16.938685 137.885567 -74.407193 -161.524683 11.375377 4.169878 -6.572067 2.675736 -14.390086 -3.896336 -2.238568 60.748434 -5.430242 1.913591 -7.104086 10.678595 0.166990 -0.503963 0.040700 -2.659454 -11.510757 4.367185 26.167131 76.928552 26.769022 1.068264 -11.815550 -3.444860 0.162487 0.496923 0.096315
-19.671748 62.104935 12.192067 174.494768 -52.553320 -1.262452 5.337638 26.235125 1.344461 0.790806 4.412612 0.142430 1.282595 6.953418 0.236956 4.098300 21.448372 1.352499 4.803033 16.590129 5.296045 7.054623 -5.073734 8.139974 6.147848 4.768669 5.805756 -1.757989 -5.723165 -15.468848 -78.641374 -45.733190 126.823804 -6.915251 11.784084 -25.501191 -7.767070 2.731766 2.000418 -6.005447 -6.232696 16.853830 137.910802 -74.396172 -161.571731 11.390626 4.210883 -6.548572 2.665545 -14.460455 -3.898497 -2.243507 60.758306 -5.433228 1.921128 -7.102799 10.679225 0.161724 -0.498348 0.044282 -2.659834 -11.584362 4.398345 26.104781 76.948959 26.702958 1.040698 -11.818009 -3.444470 0.189930 0.499407 0.103297
-19.670397 62.101315 12.185759 174.510634 -52.487239 -1.288659 5.322957 26.197669 1.355782 0.785226 4.436864 0.151612 1.259206 7.002466 0.256876 4.095445 21.392533 1.329970 4.683483 16.515811 5.207772 6.861808 -5.207650 8.017064 6.149495 4.718046 5.791140 -1.759277 -5.688504 -15.416992 -78.697214 -45.733949 126.857685 -6.900996 11.788665 -25.510571 -7.822392 2.671028 1.994238 -5.934201 -6.137248 16.762346 137.915293 -74.387350 -161.600694 11.381530 4.233136 -6.533090 2.647018 -14.530162 -3.890460 -2.246790 60.768539 -5.439900 1.934575 -7.089195 10.695951 0.142968 -0.486725 0.040828 -2.645760 -11.660394 4.465688 25.996984 76.983181 26.583476 0.970210 -11.819701 -3.429292 0.230439 0.491144 0.123707
-19.672470 62.098382 12.178086 174.515601 -52.426292 -1.284829 5.305263 26.205284 1.357554 0.784868 4.418831 0.148382 1.257658 6.976596 0.247878 4.088562 21.390112 1.331069 4.563358 16.468873 5.143943 6.666841 -5.318169 7.908932 6.152190 4.696498 5.780610 -1.772981 -5.663359 -15.351179 -78.752389 -45.737682 126.894518 -6.915841 11.745389 -25.518635 -7.853287 2.644726 1.989313 -5.905895 -6.058638 16.691229 137.913683 -74.382997 -161.629428 11.370531 4.255080 -6.516080 2.645674 -14.597296 -3.912172 -2.241113 60.786108 -5.427700 1.943012 -7.073987 10.703389 0.138682 -0.499999 0.034762 -2.637134 -11.727741 4.481229 26.016416 76.999143 26.588156 0.955953 -11.818988 -3.421588 0.231033 0.487740 0.129145
-19.676655 62.096065 12.169568 174.513087 -52.371172 -1.261576 5.291372 26.204040 1.344257 0.780715 4.412025 0.147598 1.257540 6.953389 0.239668 4.080660 21.387382 1.330997 4.443550 16.428947 5.085392 6.469143 -5.407843 7.813855 6.147401 4.668673 5.797410 -1.780944 -5.632105 -15.314862 -78.782865 -45.773422 126.928086 -6.919372 11.727419 -25.521635 -7.879814 2.621300 1.985940 -5.892760 -5.991116 16.624383 137.908577 -74.385957 -161.654457 11.358049 4.280888 -6.502896 2.652200 -14.655342 -3.943103 -2.254772 60.803326 -5.436948 1.944655 -7.077508 10.703841 0.147820 -0.491732 0.041045 -2.628713 -11.785851 4.478841 26.153324 77.005158 26.684577 0.956123 -11.835237 -3.374189 0.197881 0.497470 0.103087
-19.678823 62.096017 12.159635 174.535681 -52.334598 -1.268898 5.269139 26.181623 1.332580 0.778329 4.420456 0.150943 1.252321 6.971103 0.251110 4.059898 21.399701 1.353363 4.323860 16.363864 4.986551 6.268417 -5.478586 7.731302 6.150513 4.595223 5.790931 -1.790229 -5.586265 -15.302857 -78.785394 -45.830158 126.947655 -6.933653 11.667439 -25.526575 -7.888585 2.557177 1.947143 -5.898778 -5.930561 16.562958 138.039901 -74.394105 -161.778575 11.378720 4.330644 -6.516866 2.640735 -14.693117 -3.955186 -2.264067 60.822894 -5.453717 1.951493 -7.074159 10.715044 0.145097 -0.492851 0.043288 -2.623978 -11.827531 4.491411 26.112840 77.023627 26.636872 0.942441 -11.827240 -3.366462 0.198902 0.481097 0.113955
-19.682921 62.091399 12.153230 174.551368 -52.266554 -1.260815 5.240288 26.159060 1.312642 0.779134 4.396817 0.145011 1.243540 7.004666 0.275583 4.050940 21.362850 1.335842 4.202479 16.334324 4.926532 6.063475 -5.530025 7.662474 6.149192 4.565601 5.786928 -1.807620 -5.556433 -15.265375 -78.808125 -45.846509 126.974078 -6.927429 11.658346 -25.529214 -7.901493 2.531022 1.930902 -5.899739 -5.897130 16.531257 137.820092 -74.401581 -161.625776 11.341490 4.353309 -6.490738 2.639067 -14.764592 -3.978253 -2.275278 60.836482 -5.466137 1.932845 -7.054827 10.710917 0.167480 -0.500351 0.057044 -2.613198 -11.902986 4.492316 26.043050 77.041853 26.571956 0.905148 -11.841795 -3.380586 0.248778 0.496226 0.139041
-19.684816 62.087336 12.146940 174.564036 -52.206004 -1.263113 5.227004 26.136640 1.312653 0.776789 4.391447 0.145715 1.240688 6.983328 0.268081 4.046276 21.358162 1.337149 4.082170 16.315697 4.884998 5.855805 -5.562268 7.606977 6.146172 4.538613 5.794586 -1.820411 -5.527941 -15.245825 -78.870116 -45.803605 127.028902 -6.901758 11.721716 -25.541283 -7.919906 2.503827 1.924405 -5.941589 -5.831697 16.472783 137.774424 -74.422713 -161.614392 11.298501 4.376278 -6.461010 2.632001 -14.829819 -3.989046 -2.278390 60.851312 -5.473943 1.932671 -7.047793 10.712915 0.172673 -0.504144 0.061262 -2.603044 -11.968281 4.509668 26.005049 77.058262 26.524208 0.885808 -11.853497 -3.357676 0.249200 0.506497 0.134346
-19.685873 62.087169 12.138012 174.588712 -52.178815 -1.277919 5.213616 26.164525 1.331648 0.771143 4.361968 0.134953 1.237380 6.967105 0.261171 4.040942 21.353542 1.338566 3.963176 16.302762 4.847202 5.643328 -5.580168 7.563509 6.146146 4.523861 5.791945 -1.836856 -5.519910 -15.205785 -78.861331 -45.831028 127.030949 -6.903217 11.717767 -25.548357 -7.941169 2.468577 1.916775 -5.994395 -5.768859 16.420213 137.770528 -74.448206 -161.622713 11.263114 4.410805 -6.445367 2.613600 -14.861969 -3.997195 -2.265114 60.875456 -5.466505 1.935816 -7.038438 10.709725 0.172292 -0.528647 0.065307 -2.587556 -11.999222 4.546378 25.839726 77.088307 26.354234 0.839526 -11.857575 -3.343126 0.285095 0.504461 0.150610
-19.685560 62.088387 12.128521 174.588482 -52.166788 -1.280279 5.216660 26.175133 1.347012 0.769615 4.357825 0.134179 1.234385 6.959409 0.262282 4.038347 21.344693 1.363865 3.831011 16.296823 4.784157 5.423248 -5.588927 7.529078 6.138575 4.512441 5.760972 -1.854396 -5.520197 -15.158326 -78.869735 -45.837254 127.043085 -6.902497 11.715521 -25.560380 -7.965305 2.436453 1.878501 -6.055259 -5.729255 16.386486 137.713354 -74.470011 -161.585057 11.224224 4.435741 -6.407593 2.608984 -14.878788 -3.993719 -2.263937 60.891623 -5.471786 1.939696 -7.014879 10.704608 0.173284 -0.547627 0.073153 -2.575957 -12.012153 4.570048 25.802527 77.105828 26.309822 0.824254 -11.852044 -3.338929 0.288219 0.494311 0.157080
-19.687166 62.085280 12.122577 174.578714 -52.127237 -1.264883 5.218383 26.151686 1.346610 0.767632 4.361755 0.135490 1.236791 6.957631 0.281886 4.024541 21.328681 1.345098 3.707296 16.292114 4.749216 5.198175 -5.589994 7.502293 6.134906 4.459751 5.780778 -1.863397 -5.475097 -15.176107 -78.903935 -45.814535 127.072318 -6.907610 11.718371 -25.569625 -7.989948 2.413777 1.861459 -6.119988 -5.703780 16.362432 137.671714 -74.492121 -161.566339 11.191421 4.433270 -6.328033 2.608977 -14.922340 -4.009287 -2.245039 60.902457 -5.457034 1.946041 -7.013107 10.702972 0.165881 -0.540480 0.072610 -2.558953 -12.055600 4.587621 25.765639 77.125831 26.248811 0.828262 -11.860787 -3.309842 0.270849 0.505618 0.145200
-19.689878 62.080220 12.118578 174.589439 -52.077011 -1.259262 5.202492 26.107787 1.330501 0.777669 4.379828 0.162798 1.229764 6.938848 0.266568 4.012186 21.325699 1.334469 3.593067 16.287592 4.726275 4.971489 -5.584345 7.483945 6.128443 4.438921 5.795973 -1.864174 -5.463520 -15.180123 -78.923341 -45.803311 127.100446 -6.916079 11.705983 -25.574383 -8.011465 2.396374 1.852012 -6.187411 -5.694139 16.348664 137.635715 -74.518057 -161.557672 11.177287 4.515892 -6.382367 2.604688 -14.976464 -4.028727 -2.240875 60.916493 -5.456841 1.946568 -7.017123 10.705159 0.167271 -0.528904 0.073701 -2.554913 -12.111471 4.592798 25.720894 77.141157 26.196743 0.813019 -11.869192 -3.301808 0.281157 0.516951 0.146623
-19.691993 62.077887 12.113135 174.598764 -52.051643 -1.254518 5.197967 26.097766 1.330853 0.775745 4.371631 0.160526 1.231976 6.936424 0.272327 4.012734 21.315597 1.340312 3.465791 16.295326 4.694498 4.747864 -5.573413 7.471452 6.110446 4.429190 5.802312 -1.866827 -5.502333 -15.154869 -78.879492 -45.812447 127.062262 -6.923111 11.700300 -25.592107 -8.040650 2.389884 1.830622 -6.269105 -5.699737 16.342621 137.585897 -74.549034 -161.533149 11.167419 4.558755 -6.400242 2.602817 -15.007750 -4.043119 -2.245224 60.934272 -5.466309 1.951644 -7.005892 10.710440 0.159759 -0.518696 0.072104 -2.550502 -12.140167 4.597593 25.676849 77.154089 26.148424 0.795453 -11.870393 -3.298555 0.296801 0.518012 0.151402
-19.694651 62.076365 12.107724 174.610532 -52.035907 -1.248181 5.191943 26.093694 1.329168 0.768414 4.363299 0.150960 1.237100 6.938392 0.281912 4.015681 21.308162 1.346261 3.344302 16.306243 4.668281 4.531257 -5.556369 7.461666 6.096202 4.426141 5.800036 -1.858238 -5.522373 -15.153232 -78.881681 -45.798885 127.058785 -6.932644 11.688574 -25.599136 -8.059397 2.388365 1.814761 -6.366861 -5.719852 16.340944 137.503103 -74.579113 -161.475238 11.157196 4.580844 -6.395764 2.601001 -15.025920 -4.057126 -2.251261 60.947747 -5.482678 1.953083 -6.998332 10.720677 0.158217 -0.520415 0.070624 -2.550939 -12.157639 4.589651 25.656923 77.160252 26.127264 0.790881 -11.868800 -3.302090 0.308030 0.517589 0.156147
-19.695949 62.075312 12.102948 174.614599 -52.026279 -1.244643 5.206909 26.106366 1.363223 0.756477 4.351800 0.135583 1.228351 6.930209 0.268808 4.027288 21.307494 1.363302 3.229094 16.319148 4.641852 4.323766 -5.530024 7.454660 6.083292 4.419353 5.795198 -1.854418 -5.529296 -15.161153 -78.880931 -45.792752 127.051651 -6.939210 11.653467 -25.557445 -8.084198 2.375538 1.793644 -6.465046 -5.737468 16.345689 137.391763 -74.604620 -161.389663 11.147466 4.595498 -6.395917 2.601465 -15.037799 -4.066955 -2.249669 60.955011 -5.481600 1.959182 -6.979916 10.718679 0.156801 -0.535625 0.073444 -2.548618 -12.168140 4.593284 25.638747 77.167139 26.099401 0.797901 -11.867480 -3.292696 0.298480 0.514492 0.154446
